<svg xmlns="http://www.w3.org/2000/svg" viewBox="0 0 40 32"><defs><style>.cls-1{fill:#6fc2b5;}.cls-2{fill:#9bc872;}.cls-3{fill:#6cbb7c;}.cls-4{fill:#829dc9;}.cls-5{fill:#967db8;}</style></defs><g id="Camada_2" data-name="Camada 2"><path class="cls-1" d="M31.31,9l-.11-.19-.61-1a9,9,0,0,0-.68-.9l-.12-.16L30.54,6l.31.31-.48.47c.13.17.36.46.58.79.11.16.35.55.5.78L32,8l.23.36Z"/><path class="cls-1" d="M29.88,12.4l-.07-.23a11.73,11.73,0,0,0-1.35-2.73l-.12-.17,3-2.28.26.35-2.64,2a12.46,12.46,0,0,1,1.22,2.44l.39-.16.17.4Z"/><path class="cls-1" d="M30.8,13.38l0-.22a10.67,10.67,0,0,0-.8-2.43l-.09-.19L32.56,9.1l.21.39-2.33,1.24a11.66,11.66,0,0,1,.7,2.12l.42-.1.1.42Z"/><polygon class="cls-1" points="32.59 12.18 32.11 10.67 33.04 10.24 33.22 10.64 32.64 10.91 32.87 11.63 33.46 11.44 33.6 11.85 32.59 12.18"/><path class="cls-1" d="M31.64,14.38l0-.23a13.3,13.3,0,0,0-.49-2.3l-.06-.2,1.42-.47.14.42-1,.33a14.6,14.6,0,0,1,.41,2l.44-.06.06.43Z"/><polygon class="cls-1" points="32.42 15.07 32.13 13.04 33.79 12.66 33.89 13.09 32.62 13.38 32.79 14.61 33.26 14.59 33.29 15.02 32.42 15.07"/><polygon class="cls-1" points="33.06 15.62 32.97 13.99 34.03 13.92 34.06 14.35 33.42 14.4 33.47 15.18 34.14 15.17 34.15 15.6 33.06 15.62"/><path class="cls-1" d="M23.56,21.51l-.64-.93.15-.12a6,6,0,0,0,1.56-7.07l-.09-.18,4.8-2.76.22.38L25.1,13.39a6.43,6.43,0,0,1-1.6,7.27l.42.6Z"/><path class="cls-2" d="M19.76,23.15l-.43,0,.08-.88h.21A6.18,6.18,0,0,0,23.49,21l.26.35a6.55,6.55,0,0,1-3.95,1.28Z"/><path class="cls-2" d="M10,26.33,9.65,26l1.79-1.85a13.33,13.33,0,0,1-2.51-4.83l-.44.13-.12-.42.87-.25,0,.23a13.14,13.14,0,0,0,2.61,5l.13.15Z"/><polygon class="cls-2" points="6.08 18.71 6 18.29 6.67 18.18 6.6 17.4 5.94 17.44 5.91 17.01 6.99 16.95 7.14 18.54 6.08 18.71"/><polygon class="cls-2" points="6.38 19.96 6.27 19.54 7.52 19.2 7.31 17.91 6.87 17.96 6.83 17.52 7.68 17.44 8.01 19.52 6.38 19.96"/><polygon class="cls-2" points="7.72 23.43 7.49 23.06 8.08 22.69 7.77 22.05 7.17 22.34 6.98 21.95 7.97 21.47 8.64 22.85 7.72 23.43"/><polygon class="cls-2" points="11.64 28.08 11.28 27.83 11.68 27.26 11.14 26.8 10.71 27.3 10.38 27.01 11.1 26.19 12.26 27.19 11.64 28.08"/><polygon class="cls-2" points="14.72 29.94 14.32 29.77 14.59 29.11 13.95 28.8 13.64 29.41 13.25 29.21 13.75 28.22 15.15 28.9 14.72 29.94"/><polygon class="cls-2" points="15.85 30.36 15.43 30.24 15.84 28.89 14.74 28.42 14.54 28.84 14.15 28.66 14.52 27.86 16.36 28.65 15.85 30.36"/><path class="cls-2" d="M6.72,21.17l-.15-.41,1.86-.69a11.72,11.72,0,0,1-.35-1.44l-.35.09-.11-.42.83-.21,0,.24a11.34,11.34,0,0,0,.42,1.8l.07.2Z"/><rect class="cls-2" x="8" y="21.58" width="2.02" height="0.43" transform="translate(-9.17 6.77) rotate(-27.97)"/><rect class="cls-2" x="7.96" y="23.25" width="2.91" height="0.43" transform="translate(-11.77 9.66) rotate(-35.06)"/><rect class="cls-2" x="8.59" y="24.18" width="2.91" height="0.43" transform="translate(-13.27 12.04) rotate(-39.69)"/><polygon class="cls-2" points="20.05 31.04 19.94 23.34 19.12 23.31 19.06 23.73 18.63 23.67 18.74 22.87 20.37 22.92 20.48 31.03 20.05 31.04"/><path class="cls-2" d="M19.34,31.05l-.44,0,.41-7a9.8,9.8,0,0,1-1.09-.18l-.13.44-.42-.12.25-.86.22.07a8.15,8.15,0,0,0,1.42.24l.21,0Z"/><path class="cls-2" d="M18.16,30.88l-.43-.06.84-6.19a10.15,10.15,0,0,1-1.48-.43l-.17.39-.4-.18.36-.79.2.1a9.57,9.57,0,0,0,1.78.53l.2,0Z"/><path class="cls-2" d="M17,30.66l-.43-.09,1.18-5.44a10.76,10.76,0,0,1-2.13-.91l-.26.39L15,24.38l.5-.78.18.14a10.62,10.62,0,0,0,2.39,1l.19,0Z"/><path class="cls-2" d="M15.6,28.54l-.41-.14,1.06-3a12,12,0,0,1-2.32-1.5l-.26.27-.31-.3.54-.57.16.14a11.31,11.31,0,0,0,2.55,1.66l.17.08Z"/><path class="cls-2" d="M12.58,28.77l-.37-.22,2.12-3.49a21.71,21.71,0,0,1-1.91-1.77l-.29.27-.29-.32.63-.58.14.19a19.09,19.09,0,0,0,2.14,2l.14.12Z"/><path class="cls-2" d="M11.73,27l-.35-.26,1.51-1.95a10.91,10.91,0,0,1-2.06-2.57l-.38.21L10.24,22,11,21.6l.11.19a11.19,11.19,0,0,0,2.23,2.76l.16.14Z"/><polygon class="cls-3" points="21.25 30.96 21.18 29.85 22.7 29.64 22.87 30.74 22.44 30.8 22.33 30.13 21.64 30.23 21.68 30.94 21.25 30.96"/><path class="cls-3" d="M23.75,21.38,23.49,21a6.34,6.34,0,0,0,2.21-3.55l0-.24,2.8.75-.11.42-2.35-.63A6.78,6.78,0,0,1,23.75,21.38Z"/><path class="cls-3" d="M28.38,20.39,27.62,20l.08-.18a9.9,9.9,0,0,0,.78-3.41v-.23l5.65.23,0,.43-5.2-.21a10,10,0,0,1-.74,3.18l.42.23Z"/><polygon class="cls-3" points="33.77 19.32 32.79 19.11 33.01 17.56 34.04 17.66 34 18.09 33.38 18.03 33.28 18.77 33.86 18.89 33.77 19.32"/><path class="cls-3" d="M27.39,23l-.57-.54.12-.15A10.33,10.33,0,0,0,29,17.64l0-.23,4.11.7-.07.42-3.67-.62a11.07,11.07,0,0,1-2,4.52l.29.27Z"/><path class="cls-3" d="M29.69,22.11,29,21.69l.09-.18a17.2,17.2,0,0,0,.95-2.3l.07-.21,3.48,1.16-.13.41-3.08-1a17.25,17.25,0,0,1-.81,2l.35.22Z"/><path class="cls-3" d="M29.61,23.55,29,23l.1-.16s.47-.77.61-1,.49-1,.49-1l.09-.19,2,.89-.17.39-1.6-.71-.41.82c-.1.19-.38.64-.52.88l.36.31Z"/><polygon class="cls-3" points="29.73 26.83 29.01 25.99 30.05 24.88 30.84 25.66 30.53 25.97 30.06 25.5 29.59 26 30.06 26.55 29.73 26.83"/><polygon class="cls-3" points="29.51 25.74 28.96 25.11 30.22 23.53 31.57 24.64 31.29 24.98 30.28 24.15 29.53 25.1 29.84 25.46 29.51 25.74"/><polygon class="cls-3" points="32.57 22.87 31.64 22.37 32.25 20.93 33.23 21.32 33.08 21.73 32.48 21.49 32.19 22.18 32.78 22.49 32.57 22.87"/><path class="cls-3" d="M25.53,25.66,25,24.92l.18-.12A11,11,0,0,0,29,20.13l.08-.22.84.39-.18.39-.42-.19A11.17,11.17,0,0,1,25.62,25l.27.38Z"/><path class="cls-3" d="M28.82,27.68,26.74,25a8.83,8.83,0,0,1-1.94,1.35l.23.47-.39.19-.43-.86.2-.09a8.1,8.1,0,0,0,2.19-1.53l.18-.18,2.38,3Z"/><polygon class="cls-3" points="26.87 29.11 26.36 28.16 27.63 27.3 28.24 28.21 27.88 28.45 27.51 27.9 26.93 28.3 27.25 28.9 26.87 29.11"/><polygon class="cls-3" points="24.74 30.14 24.38 29.13 25.76 28.5 26.22 29.49 25.83 29.68 25.55 29.07 24.92 29.35 25.15 29.99 24.74 30.14"/><path class="cls-3" d="M29.56,24.69,29,24.16l.12-.17A11.58,11.58,0,0,0,30,22.48l.11-.21L32.2,23.6,32,24l-1.69-1.07a9.44,9.44,0,0,1-.74,1.21l.31.26Z"/><polygon class="cls-3" points="23.58 30.52 23.23 29.2 22.12 29.46 22.18 29.93 21.76 29.99 21.63 29.13 23.54 28.68 24 30.41 23.58 30.52"/><path class="cls-3" d="M22.44,29.16l-.19-.85.22,0a15.57,15.57,0,0,0,2.06-.71l.19-.08.64,1.45-.39.17L24.5,28a15.41,15.41,0,0,1-1.73.6l.09.44Z"/><path class="cls-3" d="M23.39,28.2l-.25-.83.21-.06A8.45,8.45,0,0,0,25.89,26l.19-.15,1.22,1.92-.37.23L26,26.5a8.8,8.8,0,0,1-2.29,1.16l.13.42Z"/><polygon class="cls-4" points="11.52 6.29 10.39 4.99 10.72 4.71 11.57 5.69 12.5 4.92 12.26 4.46 12.64 4.25 13.04 5.03 11.52 6.29"/><polygon class="cls-4" points="11.27 7.6 9.56 5.89 9.86 5.58 11.27 6.99 12.27 5.99 12 5.58 12.36 5.34 12.83 6.05 11.27 7.6"/><polygon class="cls-4" points="11.89 5.02 11.3 4.16 11.66 3.92 12 4.41 12.59 3.98 12.25 3.45 12.62 3.21 13.18 4.1 11.89 5.02"/><polygon class="cls-4" points="15.95 3.49 15.45 1.84 15.86 1.71 16.24 2.96 17.4 2.63 17.37 2.11 17.8 2.08 17.86 2.95 15.95 3.49"/><polygon class="cls-4" points="15.23 4.54 14.37 2.27 14.77 2.12 15.49 3.98 16.76 3.51 16.68 3.03 17.11 2.96 17.24 3.8 15.23 4.54"/><polygon class="cls-4" points="16.8 2.48 16.62 1.45 17.05 1.38 17.15 1.96 17.87 1.82 17.78 1.19 18.21 1.13 18.36 2.16 16.8 2.48"/><polygon class="cls-4" points="22.07 2.9 20.06 2.74 20.06 0.96 20.49 0.96 20.49 2.34 21.68 2.44 21.72 2 22.15 2.05 22.07 2.9"/><polygon class="cls-4" points="22.68 2.34 21.2 2.14 21.27 1.07 21.7 1.09 21.66 1.76 22.34 1.86 22.46 1.26 22.89 1.35 22.68 2.34"/><path class="cls-4" d="M14.69,5.64,13.24,2.79l.39-.2L14.87,5c.2-.11.5-.27.65-.33s.46-.17.61-.21L16,4l.42-.12.26.91-.21.06a6.69,6.69,0,0,0-.79.25c-.16.07-.62.32-.78.42Z"/><path class="cls-4" d="M12.76,8l-1-1.21.33-.28.7.84a13.85,13.85,0,0,1,2.8-1.87L15.39,5l.41-.16.32.86-.18.09a13.29,13.29,0,0,0-3,2Z"/><path class="cls-4" d="M15.59,9.11,14.08,6.6l.37-.22,1.27,2.11a7.68,7.68,0,0,1,4.71-1.24V6.77h.44v1l-.25,0A7.42,7.42,0,0,0,15.78,9Z"/><path class="cls-4" d="M22.05,7.2l-.2,0a14.62,14.62,0,0,0-2.38-.25h-.21L18.86,1l.44,0,.37,5.53a16.11,16.11,0,0,1,2.06.22l.12-.45.42.11Z"/><path class="cls-4" d="M23.36,7l-.23-.11a8.79,8.79,0,0,0-2.33-.61l-.21,0,.24-3.66.44,0-.22,3.25a8.92,8.92,0,0,1,2.05.52l.17-.54.41.14Z"/><path class="cls-4" d="M24.35,6.67l-.21-.12A8,8,0,0,0,22.67,6l-.21-.06,1.13-4.41.42.11-1,4a8,8,0,0,1,1.15.47l.2-.45.4.17Z"/><path class="cls-4" d="M25.41,6.47l-.2-.14a5.14,5.14,0,0,0-1.52-.75l-.25,0,1.28-3.68.41.14L24,5.22a7.2,7.2,0,0,1,1.23.62l.22-.42.38.19Z"/><path class="cls-4" d="M26.4,6.33l-.18-.14a6.43,6.43,0,0,0-1.46-.88l-.22-.07,1.28-2.93.4.18L25.12,5a6.82,6.82,0,0,1,1.18.72l.27-.37.35.24Z"/><path class="cls-4" d="M27.44,6.34l-.17-.16a6,6,0,0,0-1.35-1l-.19-.1,1.15-2.19.38.21-1,1.8a7.15,7.15,0,0,1,1.09.81l.32-.39.33.28Z"/><path class="cls-4" d="M28.47,6.35l-.17-.17a9.45,9.45,0,0,0-1.19-1L27,5l.92-1.46.37.23L27.53,4.9c.19.15.53.44.91.8l.28-.35.33.27Z"/><polygon class="cls-4" points="29.35 6.2 28.2 5.13 28.86 4.3 29.2 4.58 28.79 5.09 29.32 5.58 29.74 5.12 30.06 5.41 29.35 6.2"/><path class="cls-4" d="M25.42,17.53l-1-.27,0-.2a5.56,5.56,0,0,0-1.31-4.56c-1.57-1.8-4.24-1.25-4.27-1.25l-.21.05-.87-3.56.42-.1L19,10.79a5.05,5.05,0,0,1,4.48,1.43,6,6,0,0,1,1.43,4.72l.58.17,0,.2C25.46,17.37,25.42,17.53,25.42,17.53Z"/><polygon class="cls-5" points="8.98 8.42 8.12 7.88 8.35 7.51 8.87 7.84 9.29 7.26 8.79 6.83 9.06 6.5 9.88 7.19 8.98 8.42"/><polygon class="cls-5" points="7.98 10.51 7 10.11 7.17 9.71 7.75 9.94 8.05 9.26 7.51 8.94 7.73 8.57 8.61 9.08 7.98 10.51"/><polygon class="cls-5" points="8.82 10.28 8 9.94 8.16 9.54 8.63 9.73 9.49 8.17 9.11 7.83 9.4 7.51 10.04 8.08 8.82 10.28"/><path class="cls-5" d="M8.81,12.05l-2.23-.8.14-.41,1.84.66a18.92,18.92,0,0,1,.91-2.05l-.34-.2.23-.37.72.44-.14.19a16.66,16.66,0,0,0-1,2.34Z"/><polygon class="cls-5" points="9.15 13.26 6.25 12.47 6.37 12.05 8.87 12.73 9.46 10.98 9.06 10.79 9.26 10.4 9.99 10.76 9.15 13.26"/><polygon class="cls-5" points="9.64 14.32 6.02 13.7 6.09 13.27 9.31 13.83 9.69 12.28 9.29 12.13 9.45 11.72 10.2 12.01 9.64 14.32"/><polygon class="cls-5" points="10.21 15.29 5.91 14.95 5.94 14.52 9.85 14.83 10.06 13.44 9.64 13.3 9.78 12.89 10.55 13.15 10.21 15.29"/><path class="cls-5" d="M10.89,16.22h-5v-.43h4.62c0-.32,0-.93.07-1.28l-.43-.13.12-.41.78.23,0,.18c-.05.33-.09,1.62-.09,1.63Z"/><path class="cls-5" d="M16.12,15.86l-5.43-.48,0-.44,5,.45A4.73,4.73,0,0,1,18,11.92a4.26,4.26,0,0,1,4.88.62l.48-.49.15.16.14.16-.78.79L22.7,13a3.79,3.79,0,0,0-4.52-.69,4.37,4.37,0,0,0-2.05,3.33Z"/></g></svg>